<svg width="106" height="60" fill="none" xmlns="http://www.w3.org/2000/svg"><path d="M53.425 27.4082c-.4431-.5898-.6551-1.2869-.6047-1.9886v-2.8832c0-.8838.2004-1.5555.6013-2.015.4008-.4595 1.0894-.6883 2.0655-.6863.9173 0 1.5684.1955 1.9534.5866.42.499.6243 1.1092.5775 1.7246v.6776h-1.6408v-.6864c.0058-.2246-.0101-.4493-.0476-.6716-.0236-.1521-.1062-.2927-.2344-.3989-.1685-.1145-.3807-.17-.5945-.1555-.2248-.0145-.4478.0441-.6251.1643-.1429.1177-.2382.2719-.2718.4399-.0471.2354-.0687.474-.0645.7128v3.4991c-.0259.3376.0465.6754.2106.9826.0816.1039.1949.1863.3275.2381.1325.0518.279.0709.4233.0552.2102.0149.4188-.042.5809-.1584.1337-.1146.2197-.2641.2446-.4253.0383-.2321.0554-.4665.051-.701v-.7098h1.6408v.6482c.0461.6416-.1532 1.2784-.5673 1.8126-.3771.4283-1.0192.6424-1.9636.6424-.9444 0-1.6579-.2288-2.0621-.704ZM60.2569 27.4376c-.4144-.4488-.6216-1.1029-.6216-1.9681v-3.0328c0-.8564.2072-1.5046.6216-1.9446.4145-.44 1.1075-.659 2.0791-.657.9648 0 1.6544.219 2.0689.657.4144.44.6251 1.0882.6251 1.9446v3.0328c0 .8564-.2107 1.5134-.6319 1.9651-.4213.4517-1.1075.6776-2.0621.6776-.9546 0-1.6612-.2288-2.0791-.6746Zm2.8435-.7274c.1484-.2811.216-.589.197-.8975v-3.7133c.0191-.3025-.0474-.6045-.1936-.8799-.0833-.1061-.1994-.1899-.3352-.2418-.1357-.0518-.2856-.0697-.4326-.0515-.1474-.0177-.2976.0003-.4338.0521-.1362.0518-.253.1353-.3374.2412-.1493.2746-.2171.577-.197.8799v3.7309c-.0206.3086.047.6168.197.8975.0957.0946.2137.1704.3461.2224.1325.0519.2763.0788.4217.0788.1455 0 .2893-.0269.4217-.0788.1324-.052.2504-.1278.3461-.2224v-.0176ZM67.0035 19.9236h1.7666l1.3283 5.5956 1.3589-5.5956h1.719l.1733 8.0767H72.079l-.1359-5.6132-1.3113 5.6132h-1.0192l-1.3589-5.6338-.1257 5.6338h-1.2841l.1596-8.0767ZM75.3303 19.9236h2.7517c1.5853 0 2.378.7644 2.378 2.2934 0 1.4644-.8346 2.1956-2.5037 2.1936h-.9376v3.5897h-1.6986l.0102-8.0767Zm2.3508 3.4518c.1678.0184.3383.0051.4996-.039.1613-.044.3096-.1178.4346-.2161.1948-.2728.2807-.5932.2446-.9121.0089-.2464-.0185-.4928-.0815-.7332-.0242-.0803-.0667-.1556-.1251-.2216-.0583-.066-.1313-.1212-.2146-.1626-.2358-.0976-.4965-.142-.7576-.129h-.659v2.4136h.659ZM82.9094 19.9236h1.8243l1.8719 8.0767h-1.5831l-.3703-1.8623h-1.6273l-.3804 1.8623h-1.6069l1.8718-8.0767Zm1.5593 5.2789-.6352-3.3902-.6353 3.3902h1.2705ZM88.1173 19.9236h1.189l2.2762 4.6073v-4.6073h1.4098v8.0767H91.861l-2.2897-4.8097v4.8097h-1.4574l.0034-8.0767ZM96.2945 24.9208l-1.8923-4.9859h1.5933l1.1551 3.2027 1.0837-3.2027h1.5593l-1.8685 4.9859v3.0795h-1.6306v-3.0795ZM56.0477 31.5316v.4224h-1.386v3.2819h-.581V31.954h-1.3928v-.4224h3.3598ZM60.3927 35.2362h-.4485c-.0455.0024-.0904-.0101-.1257-.0352-.0339-.0215-.0598-.051-.0747-.085l-.4009-.8799h-1.9228l-.4009.8799c-.0114.0368-.0323.0708-.0612.0997-.0355.0245-.0802.037-.1256.0352h-.4485l1.6986-3.7041h.5912l1.719 3.6894Zm-2.813-1.3755h1.6036l-.6795-1.5074c-.0501-.114-.0921-.2306-.1257-.349-.0238.0704-.0442.1378-.0645.1965l-.0612.1554-.6727 1.5045ZM63.3212 34.8724c.1063.0048.2129.0048.3193 0 .0918-.0082.1827-.0229.2718-.044.0832-.0177.1649-.0402.2446-.0675.0747-.0264.1495-.0587.2276-.0909v-.8331h-.6795c-.0168.0009-.0336-.0013-.0494-.0064-.0157-.005-.0301-.0128-.0423-.0229-.0111-.0083-.02-.0187-.0258-.0304-.0059-.0117-.0087-.0243-.0081-.0371v-.2845h1.3181v1.4197c-.1076.0664-.2212.1253-.3398.176-.1211.0516-.2473.0938-.377.1261-.139.0353-.281.0608-.4247.0763-.1647.0158-.3303.0236-.496.0234-.293.0022-.5837-.0446-.8561-.1378-.2543-.0883-.4854-.22-.6794-.3872-.1892-.1689-.3381-.3682-.4383-.5866-.107-.2456-.1601-.5062-.1562-.7685-.0036-.264.0482-.5264.1528-.7744.0977-.2195.2469-.4193.4383-.5866.1938-.1667.425-.2974.6794-.3843.2909-.0945.5997-.1412.9105-.1379.1581-.0001.316.0107.4722.0323.1381.0194.2735.0509.4043.0939.1188.0385.2327.0877.3397.1466.1041.0579.2029.1226.2955.1936l-.163.2288c-.0128.0209-.0318.0385-.0551.0508-.0233.0124-.0501.0192-.0774.0196-.0376-.001-.0741-.0112-.1053-.0293-.051-.0235-.1054-.0528-.1665-.088-.0722-.0391-.1484-.0725-.2276-.0997-.1013-.0351-.2058-.0626-.3126-.0822-.1423-.0226-.2867-.0334-.4314-.0322-.2241-.0022-.4467.0327-.6557.1026-.189.0655-.3594.1656-.4994.2933-.1408.1332-.2483.29-.3159.4606-.1518.4011-.1518.8336 0 1.2348.0743.1742.1901.3331.3397.4664.1393.1271.3084.2271.496.2933.216.0641.445.089.6727.0734ZM68.7363 34.8136h1.8549v.4223h-2.4223v-3.7043h.581l-.0136 3.282ZM72.5208 35.2359h-.581v-3.7043h.581v3.7043ZM74.6814 31.5492c.0345.017.0646.04.0883.0675l2.4833 2.7923a.881237.881237 0 0 1 0-.132V31.517h.5062v3.7192h-.2921c-.0433.003-.0867-.0041-.1257-.0206-.0353-.0184-.0664-.0423-.0918-.0704l-2.4799-2.7894V35.2362h-.4858v-3.7046h.3024c.0328.0001.0652.0061.0951.0176ZM82.0364 31.5316v.4077h-2.0587v1.2231h1.668v.393h-1.668v1.2641h2.0587v.4077h-2.6566v-3.6956h2.6566ZM21.1618 8.65551l25.795 6.32329v22.158l-25.795-6.3204V8.65551Zm-1.6545-1.88879V31.8928l29.1006 7.1357V13.9054L19.5073 6.76672Z" fill="#AFB1B8"/><path d="M35.1039 50.6922 6 43.5505V18.4271l29.1039 7.1388v25.1263Z" fill="#AFB1B8"/><path d="M19.9897 8.37099 45.4484 14.615l-10.8269 9.3499-25.4621-6.247 10.8303-9.34691Zm-.4824-1.60427L6 18.4277l29.1039 7.1385 13.5039-11.6609-29.1005-7.13858ZM36.7415 49.2788l11.8663-10.2473-11.8663-2.9122v13.1595Z" fill="#AFB1B8"/></svg>