<svg width="106" height="60" fill="none" xmlns="http://www.w3.org/2000/svg"><path d="M36.4063 49.1014c.0159.0004.0316.0035.0461.0092.0145.0057.0275.0139.0384.024l.2181.2085c-.1693.1687-.3785.3037-.6134.3957-.2751.1003-.5716.1487-.8698.1421-.2802.005-.5586-.0401-.8179-.1327-.2339-.085-.444-.2126-.6162-.3743-.1757-.1677-.3111-.3643-.3981-.5781-.0953-.2384-.1423-.4893-.139-.7416-.0039-.2539.047-.5062.1499-.7439.0953-.2152.2389-.4117.4226-.5781.1862-.1631.4089-.2914.6544-.3767.2685-.0905.5545-.1355.8425-.1327.2675-.0056.5336.0354.7825.1208.2159.0814.4142.1944.5862.3341l-.1827.2227c-.0126.0157-.0283.0293-.0464.0403-.0215.0128-.0476.0187-.0736.0166-.0283-.0017-.0556-.0099-.079-.0237l-.0982-.0593-.1363-.0758c-.0589-.0281-.1199-.0527-.1827-.0734-.0809-.0252-.1638-.045-.2481-.0592-.107-.0172-.2157-.0251-.3245-.0237-.2073-.0023-.4131.0315-.6052.0995-.1792.0629-.3409.1582-.4744.2795-.136.1291-.2408.2806-.3081.4455-.0768.1886-.1147.3875-.1118.5875-.0033.2032.0345.4053.1118.5971.0665.1634.1693.314.3026.443.1249.1203.2797.2143.4526.2749.178.0641.369.0963.5617.0947.1112.0015.2225-.0048.3326-.0189.1798-.0191.3522-.0734.5044-.1588.0763-.0437.1483-.0928.2154-.1469.028-.0232.0649-.0367.1036-.0379ZM42.7044 48.0538c.0034.2514-.0465.5011-.1472.7368-.0888.2137-.2288.4087-.4107.572-.1819.1634-.4015.2914-.6444.3756-.5338.1769-1.1239.1769-1.6577 0-.2414-.0855-.4596-.2138-.6407-.3767-.1818-.1663-.3228-.3629-.4144-.578-.1964-.4772-.1964-.9988 0-1.4759.093-.2153.2338-.4125.4144-.5805.1827-.1577.4008-.2811.6407-.3624.5331-.1801 1.1246-.1801 1.6577 0 .2422.0855.4613.2137.6434.3767.1795.1646.3195.3587.4117.5709.101.2372.1509.4886.1472.7415Zm-.5725 0c.0043-.2011-.0308-.4013-.1036-.5923-.0611-.1635-.1604-.3143-.2917-.443-.1279-.1217-.2853-.2172-.4608-.2795-.3879-.1295-.8172-.1295-1.2051 0-.1755.0623-.3329.1578-.4608.2795-.1331.1279-.2335.2789-.2944.443-.1387.3857-.1387.7989 0 1.1846.0615.1639.1618.3148.2944.443.128.121.2854.2157.4608.2772.3886.1262.8165.1262 1.2051 0 .1754-.0615.3328-.1562.4608-.2772.1307-.129.2299-.2797.2917-.443.0732-.1909.1082-.3912.1036-.5923ZM47.0013 48.6747l.0573.1327c.0218-.0474.0409-.0901.0627-.1327.0208-.0445.0444-.088.0709-.1303l1.3932-2.2006c.0273-.0379.0518-.0615.0791-.0687.037-.0098.0758-.0138.1145-.0118h.4117v3.5792h-.4881v-2.743a.97394.97394 0 0 1 0-.1232l-1.4014 2.2314c-.0178.0334-.0462.0617-.082.0814-.0358.0198-.0774.0301-.1197.0299h-.0791c-.0425.0005-.0842-.0097-.12-.0295-.0358-.0198-.0642-.0482-.0818-.0818l-1.4423-2.2456v2.8733h-.4716v-3.5721h.4117c.0386-.002.0774.002.1145.0118.0338.0146.0607.0389.0763.0687l1.4232 2.203c.028.0407.0517.0835.0709.1279ZM52.2444 48.4969v1.3407h-.5453v-3.5744h1.216c.2295-.0038.4584.0225.6789.0781.1765.0435.3401.1194.4799.2227.1211.0968.2144.2168.2726.3506.0644.1458.0958.301.0927.4571.0024.1568-.0319.3123-.1009.4572-.0655.1371-.1662.2595-.2944.3577-.1399.1075-.3044.1883-.4826.2368-.2123.059-.4343.087-.6571.0829l-.6598-.0094Zm0-.3838h.6598c.1433.0017.286-.0167.4226-.0544.1127-.033.2165-.0854.3054-.154.0819-.0656.1453-.1466.1854-.2369.0446-.0955.0668-.1977.0654-.3008.0063-.0994-.0123-.1987-.0547-.2912-.0424-.0924-.1075-.1758-.1907-.2441-.2083-.1413-.4699-.2098-.7334-.1919h-.6598v1.4733ZM59.5731 49.8424h-.4308c-.0432.0014-.0857-.0103-.12-.0332-.0309-.0223-.0552-.0507-.0709-.0829l-.3708-.8647h-1.8621l-.3845.8647c-.0141.0316-.0376.0594-.0681.0806-.0347.0242-.0782.0368-.1227.0355h-.4308l1.6359-3.5796h.5671l1.6577 3.5796Zm-2.6992-1.329h1.5377l-.6489-1.457c-.0496-.1096-.0906-.222-.1227-.3364l-.0627.1872c-.0191.0568-.0409.109-.06.1516l-.6434 1.4546ZM61.9288 46.2795c.0326.0155.0606.0374.0818.0639l2.3856 2.6983V46.2629h.4881v3.5795h-.2727c-.0387.001-.0771-.0063-.1118-.0213-.0336-.0171-.0633-.0396-.0872-.0663l-2.3829-2.6959c.0026.041.0026.0821 0 .1232V49.8424h-.4881v-3.5795h.289c.0338-.0008.0673.0048.0982.0166ZM68.9031 48.4188v1.4214h-.5453v-1.4214l-1.5077-2.1557h.488c.0421-.0022.0837.0087.1173.0307.0297.023.0546.0503.0736.0806l.9434 1.3906c.0381.0592.0708.1137.0981.1658.0273.0521.0491.1019.0682.1516l.0709-.154c.0264-.0563.0574-.1109.0927-.1634l.9297-1.4001c.0196-.0279.0434-.0534.0709-.0758.0323-.0245.0743-.0373.1172-.0355h.4935l-1.5105 2.1652ZM46.7314 40.2561c.2372.0261.4772.0474.7198.0664 3.6789-1.4299 6.791-3.7702 8.9475-6.7283 2.1565-2.9582 3.2616-6.403 3.1772-9.9038l-4.0543-3.5226c.8244 3.7273.4388 7.5804-1.1136 11.1281-1.5525 3.5478-4.2104 6.6502-7.6766 8.9602Z" fill="#AFB1B8"/><path d="m45.2837 40.0923.1091.0189c3.7038-2.3018 6.5277-5.5161 8.1065-9.2273 1.5787-3.7112 1.8396-7.7486.749-11.59l-5.7746-5.0172c2.3357 4.1241 3.2758 8.7395 2.7111 13.3095-.5647 4.57-2.6111 8.9068-5.9011 12.5061ZM64.868 27.8265c-.9811 3.8466-3.3638 7.3158-6.7944 9.8924-1.0019.7566-2.0826 1.4307-3.2281 2.0135 2.7934-.7134 5.361-1.9746 7.5048-3.6864 2.1437-1.7119 3.8064-3.8286 4.8597-6.187l-2.342-2.0325Z" fill="#AFB1B8"/><path d="m63.949 27.2601-3.3344-2.8972c-.0638 3.3031-1.1446 6.5311-3.1301 9.3485-1.9855 2.8173-4.8032 5.1213-8.1603 6.6723h.0164c.7481-.0002 1.4956-.039 2.2384-.1161 3.1374-1.1126 5.909-2.8827 8.0674-5.1524 2.1585-2.2697 3.6366-4.9683 4.3026-7.8551ZM45.7663 12.1609l-3.978-3.46095c-3.5561 1.19396-6.6145 3.29285-8.7749 6.02205-2.1605 2.7292-3.3222 5.9615-3.3333 9.2739.0133 3.6601 1.4312 7.2118 4.0292 10.0929 2.598 2.8811 6.2278 4.9272 10.3148 5.8142 3.6484-3.862 5.7845-8.6343 6.0978-13.6232.3133-4.989-1.2125-9.9349-4.3556-14.1189ZM73.1401 26.7273c-.0144-4.3425-2.0062-8.5035-5.5404-11.5741-3.5341-3.0706-8.3233-4.8012-13.3213-4.8137-2.3096-.0021-4.5995.3682-6.7535 1.092l24.3556 21.1611c.8339-1.8705 1.261-3.8593 1.2596-5.8653Z" fill="#AFB1B8"/></svg>